<svg xmlns="http://www.w3.org/2000/svg" xmlns:xlink="http://www.w3.org/1999/xlink" width="500" zoomAndPan="magnify" viewBox="0 0 375 374.999991" height="500" preserveAspectRatio="xMidYMid meet" version="1.0"><defs><g/></defs><g fill="#ff0000" fill-opacity="1"><g transform="translate(1.097876, 235.40694)"><g><path d="M 55.578125 -128.25 C 62.390625 -128.25 69.050781 -127.253906 75.5625 -125.265625 C 82.082031 -123.285156 86.921875 -121.328125 90.078125 -119.390625 L 94.65625 -116.328125 L 83.046875 -93.4375 C 82.128906 -94.039062 80.859375 -94.828125 79.234375 -95.796875 C 77.609375 -96.765625 74.554688 -98.0625 70.078125 -99.6875 C 65.597656 -101.320312 61.425781 -102.140625 57.5625 -102.140625 C 52.769531 -102.140625 49.078125 -101.117188 46.484375 -99.078125 C 43.890625 -97.046875 42.59375 -94.300781 42.59375 -90.84375 C 42.59375 -89.113281 43.203125 -87.507812 44.421875 -86.03125 C 45.648438 -84.550781 47.738281 -82.972656 50.6875 -81.296875 C 53.632812 -79.617188 56.226562 -78.269531 58.46875 -77.25 C 60.707031 -76.226562 64.171875 -74.703125 68.859375 -72.671875 C 76.992188 -69.210938 83.9375 -64.503906 89.6875 -58.546875 C 95.445312 -52.597656 98.328125 -45.859375 98.328125 -38.328125 C 98.328125 -31.097656 97.023438 -24.785156 94.421875 -19.390625 C 91.828125 -13.992188 88.265625 -9.769531 83.734375 -6.71875 C 79.210938 -3.664062 74.203125 -1.398438 68.703125 0.078125 C 63.203125 1.554688 57.25 2.296875 50.84375 2.296875 C 45.34375 2.296875 39.945312 1.734375 34.65625 0.609375 C 29.363281 -0.503906 24.9375 -1.898438 21.375 -3.578125 C 17.8125 -5.265625 14.601562 -6.921875 11.75 -8.546875 C 8.90625 -10.179688 6.820312 -11.554688 5.5 -12.671875 L 3.515625 -14.34375 L 17.859375 -38.46875 C 19.078125 -37.457031 20.753906 -36.160156 22.890625 -34.578125 C 25.035156 -33.003906 28.828125 -30.894531 34.265625 -28.25 C 39.710938 -25.601562 44.523438 -24.28125 48.703125 -24.28125 C 60.816406 -24.28125 66.875 -28.398438 66.875 -36.640625 C 66.875 -38.367188 66.441406 -39.972656 65.578125 -41.453125 C 64.710938 -42.929688 63.179688 -44.40625 60.984375 -45.875 C 58.796875 -47.351562 56.863281 -48.523438 55.1875 -49.390625 C 53.507812 -50.253906 50.757812 -51.578125 46.9375 -53.359375 C 43.125 -55.140625 40.300781 -56.488281 38.46875 -57.40625 C 30.832031 -61.164062 24.925781 -65.867188 20.75 -71.515625 C 16.582031 -77.171875 14.5 -83.253906 14.5 -89.765625 C 14.5 -101.066406 18.671875 -110.304688 27.015625 -117.484375 C 35.367188 -124.660156 44.890625 -128.25 55.578125 -128.25 Z M 55.578125 -128.25 "/></g></g></g><g fill="#ff0000" fill-opacity="1"><g transform="translate(103.685924, 235.40694)"><g><path d="M 81.21875 -125.953125 L 81.21875 -100.765625 L 37.859375 -100.765625 L 37.859375 -75.71875 L 79.390625 -75.71875 L 79.390625 -50.53125 L 37.859375 -50.53125 L 37.859375 -25.1875 L 81.21875 -25.1875 L 81.21875 0 L 9.15625 0 L 9.15625 -125.953125 Z M 81.21875 -125.953125 "/></g></g></g><g fill="#ff0000" fill-opacity="1"><g transform="translate(192.22915, 235.40694)"><g><path d="M 105.796875 0 L 85.65625 -70.6875 L 65.5 0 L 33.59375 0 L -2.296875 -125.953125 L 29.625 -125.953125 L 51.140625 -39.546875 L 51.90625 -39.546875 L 74.8125 -125.953125 L 96.484375 -125.953125 L 119.390625 -39.546875 L 120.15625 -39.546875 L 141.671875 -125.953125 L 173.4375 -125.953125 L 137.5625 0 Z M 105.796875 0 "/></g></g></g></svg>